<?xml version="1.0" encoding="UTF-8"?>
<svg width="120px" height="70px" viewBox="0 0 120 70" version="1.1" xmlns="http://www.w3.org/2000/svg" xmlns:xlink="http://www.w3.org/1999/xlink">
    <title>preloader</title>
    <g id="preloader" stroke="none" stroke-width="1" fill="none" fill-rule="evenodd">
        <g id="Group" transform="translate(9.000000, 2.000000)" fill="#222222" fill-rule="nonzero">
            <path d="M1.41585331,25.0919723 C1.65227879,25.0919723 1.84930002,25.0501868 2.04632125,24.8830447 C2.24334248,24.674117 2.44036371,24.3816184 2.59798069,24.0891197 C2.75559768,23.7548355 2.99202316,23.2951948 3.30725713,22.751983 C3.66189534,22.1669856 3.85891657,21.7909159 3.97712931,21.5819883 C5.27746944,19.2837845 6.10495861,17.8212912 6.45959682,17.1945083 C7.24768175,15.8573715 8.11457516,14.6873769 8.98146858,13.6009533 C9.06027707,13.5591677 9.41491529,13.183098 10.0847875,12.4727441 C10.0847875,12.4727441 10.1241917,12.5145296 10.163596,12.5145296 C10.2424045,12.5145296 10.2424045,12.5563152 10.2818087,12.5563152 C10.2424045,12.9741704 10.163596,13.3502401 10.0847875,13.6845243 C9.65134076,15.4813018 9.37551104,16.9020096 9.2572983,17.9466477 C9.06027707,19.5344976 9.09968132,20.9134199 9.37551104,22.041629 C9.45431953,22.4176988 9.57253227,22.751983 9.69074501,23.0026961 C9.92717049,23.3369803 10.163596,23.5876934 10.4788299,23.629479 C10.7940639,23.71305 11.1092979,23.629479 11.3851276,23.4205513 C11.6609573,23.2534092 11.8579786,23.0444816 12.094404,22.7101974 C12.1732125,22.6684119 12.6854677,22.0834146 13.5523611,20.996991 C14.5768715,19.7016397 15.128531,18.9912858 15.2467437,18.8659292 C15.6013819,18.5316451 16.1530414,17.9884332 16.9017221,17.3198649 C17.0987433,17.1527228 17.374573,16.9855807 17.689807,16.8184386 C18.1626579,16.609511 18.5567004,16.693082 18.9113386,17.0691517 C19.0295514,17.1527228 19.2265726,17.4034359 19.5418066,17.8212912 C20.566317,19.0748569 21.0391679,19.7016397 21.0391679,19.7434252 C22.7335505,21.7073449 24.7431671,22.7937685 27.1074218,23.1280527 C27.8561025,23.2534092 28.5653789,23.2534092 29.1564426,23.1280527 C30.6932082,22.8773395 32.1117611,22.2087711 33.4121012,21.1641331 C34.2789946,20.4119936 35.776356,19.1584279 37.8253768,17.3616504 C38.022398,17.1945083 38.3770362,16.7766531 38.9286957,16.1916557 C39.0863127,15.9827281 39.1651212,15.7738005 39.0863127,15.6066584 C39.0075042,15.4395163 38.7710787,15.5230873 38.4558447,15.815586 C36.09159,17.9466477 34.7124413,19.1584279 34.3578031,19.4927121 C33.057463,20.6209212 31.7571229,21.3730607 30.33857,21.8327014 C29.4716766,22.1252001 28.6047832,22.2087711 27.7378898,22.041629 C25.8070817,21.7909159 24.2309119,20.8716344 23.0093802,19.4091411 C22.812359,19.1166424 22.4577208,18.7405727 22.0636783,18.2391464 C21.6696359,17.7377201 21.3544019,17.3616504 21.1967849,17.1527228 C20.7239339,16.5677254 20.4087,16.1498702 20.1722745,15.9409426 C19.6994235,15.5230873 19.1871683,15.2723742 18.7537216,15.2305887 C18.3202749,15.1888032 17.8080197,15.3559453 17.216956,15.6902294 C16.9017221,15.8991571 16.6652966,16.1080847 16.4682754,16.2752268 C15.6013819,17.0273662 15.0497225,17.487007 14.813297,17.8212912 C14.6162758,17.9884332 14.4192546,18.1973609 14.2616376,18.448074 C14.0252121,18.6570016 13.8281909,18.9495003 13.5917654,19.2002134 C13.3947442,19.4509266 13.1977229,19.7016397 13.0401059,19.8687818 C12.7642762,20.203066 12.2126168,20.7880633 11.5033403,21.5819883 C11.3457233,21.7909159 11.1881064,21.7909159 11.0304894,21.7073449 L11.0304894,20.5373502 L11.0304894,20.5373502 C11.0304894,19.6180687 11.1881064,17.9466477 11.5033403,15.4813018 C11.5821488,14.4366637 11.6609573,13.6427388 11.6609573,13.099527 C11.7003616,12.6398862 11.6609573,12.1802455 11.5033403,11.7623902 C11.3457233,11.428106 11.1881064,11.2191784 10.9516809,11.1356074 C10.6758512,11.0102508 10.4000214,11.0520363 10.0847875,11.2191784 C9.84836199,11.3863205 9.57253227,11.6370336 9.2572983,11.9295323 C7.95695818,13.2666691 6.81423504,14.8127334 5.78972464,16.5677254 C5.51389491,17.0691517 5.11985245,17.7795056 4.568193,18.7405727 C4.0559378,19.6598542 3.74070383,20.2448515 3.5436826,20.5373502 C3.07083165,21.3730607 2.59798069,22.2505567 2.08572549,23.1280527 C2.04632125,23.1280527 2.04632125,23.2116237 2.006917,23.2534092 C1.96751276,23.2951948 1.96751276,23.3369803 1.88870426,23.3787658 C1.88870426,23.3787658 1.88870426,23.4205513 1.80989577,23.5041224 C1.77049152,23.5459079 1.73108728,23.5459079 1.65227879,23.5459079 C1.33704482,22.7937685 1.29764057,21.4566317 1.57347029,19.4509266 C1.80989577,17.4034359 2.20393823,15.8991571 2.71619343,14.8127334 C2.91321466,14.854519 2.99202316,14.8963045 3.0314274,14.8963045 C3.50427836,14.9798755 3.85891657,14.8127334 4.01653356,14.3948782 C4.29236328,13.6845243 4.41057602,12.9323849 4.41057602,12.1802455 C4.41057602,12.0966744 4.37117177,11.9295323 4.33176753,11.7623902 C4.17415054,11.3863205 3.93772507,11.1356074 3.6224911,11.0520363 C3.30725713,10.9266797 2.95261891,11.0520363 2.67678919,11.3027495 C2.44036371,11.428106 2.28274672,11.6788192 2.08572549,12.0131034 C1.65227879,12.7234573 1.29764057,13.5173822 1.02181085,14.3948782 C0.548959892,15.9409426 0.233725923,17.4452214 0.076108938,18.8659292 C-0.0815080467,20.5791357 -0.00269955434,22.1669856 0.391342908,23.71305 C0.4701514,24.0891197 0.627768385,24.3816184 0.864193862,24.7159026 C0.982406601,24.9248302 1.17942783,25.0501868 1.41585331,25.0919723 Z M94.0552361,11.6788192 C94.4492786,11.4698915 94.6857041,10.9684653 94.7645125,10.0909693 C94.9221295,9.21347327 94.843321,8.62847594 94.5280871,8.33597727 C94.4492786,8.25240622 94.2128531,8.12704965 93.8976191,8.0434786 C93.5823852,7.95990756 93.3065554,8.00169308 93.0307257,8.12704965 C92.8731087,8.2106207 92.9913215,8.67026146 93.4247682,9.54775746 C93.8188106,10.4252535 94.0552361,11.1356074 94.0552361,11.6788192 Z M87.9081737,66 C88.6962586,66 89.4843436,65.7492869 90.2724285,65.3314316 C91.3757474,64.7464343 92.4002578,63.8271528 93.2671512,62.6153726 C94.1340446,61.3618069 94.8827253,59.8993135 95.473789,58.1861071 C96.2618739,55.7625467 96.7741291,53.1300587 96.9317461,50.205072 C97.0499588,48.45008 97.0893631,46.2772328 97.0105546,43.8118869 C96.8923418,40.469045 96.5377036,36.7501334 95.8678314,32.6133666 C95.473789,29.8973075 95.0403423,27.6408892 94.6857041,25.7187551 C94.6068956,25.3008999 94.6857041,24.8830447 95.000938,24.590546 C95.0797465,24.4651894 95.1979593,24.3398329 95.3949805,24.1309052 C95.5525975,23.8801921 95.631406,23.71305 95.7102145,23.71305 C96.8923418,22.1252001 98.7049372,20.119495 101.069192,17.6123635 C101.226809,17.4452214 101.384426,17.2780793 101.581447,17.1109373 C101.778468,16.9020096 101.97549,16.693082 102.172511,16.5259399 C102.408936,16.2752268 102.566553,16.1080847 102.72417,16.0245136 C102.802979,15.9409426 102.881787,15.8573715 102.960596,15.6902294 C103,15.6484439 103,15.6484439 103,15.6066584 C102.960596,15.4813018 102.960596,15.4395163 102.881787,15.4395163 C102.645362,15.4395163 102.487745,15.4395163 102.448341,15.5230873 C102.014894,15.7738005 101.69966,16.0245136 101.542043,16.1916557 C100.911575,16.7766531 100.438724,17.2780793 100.044682,17.7377201 C99.4142136,18.448074 98.5473202,19.5344976 97.404597,20.8716344 C96.2618739,22.2087711 95.473789,23.1280527 95.0797465,23.5459079 C95.0403423,23.629479 95.000938,23.6712645 94.9221295,23.7548355 C94.9221295,23.796621 94.843321,23.8801921 94.7251083,23.9637631 C94.6462998,24.0891197 94.6068956,24.2144763 94.5280871,24.2980473 C93.9764276,20.9134199 93.8188106,18.6987872 94.0158319,17.6123635 C94.0946404,17.6123635 94.1340446,17.6123635 94.1340446,17.570578 C94.5674913,17.4452214 94.843321,17.3616504 95.000938,17.1945083 C95.1191508,17.0273662 95.158555,16.693082 95.158555,16.2752268 C95.1191508,15.6902294 94.9615338,15.1052321 94.7251083,14.5202348 C94.6068956,14.1859506 94.3704701,13.9352374 94.0552361,13.8098809 C93.8188106,13.6427388 93.5035767,13.6427388 93.2671512,13.7680954 C92.9519172,13.8516664 92.7943002,14.1023795 92.7154917,14.3948782 C92.6760875,14.6455914 92.6366833,14.93809 92.6366833,15.2723742 C92.6366833,16.693082 92.6760875,17.8212912 92.7154917,18.6987872 C92.8731087,21.9162725 93.0307257,24.2144763 93.1883427,25.5098275 C93.2671512,25.7187551 93.2671512,25.8858972 93.2671512,26.0112538 C93.2277469,26.0530393 93.0307257,26.3037525 92.6760875,26.8469643 C89.9965988,30.816589 87.789961,34.7444283 86.0561741,38.5886964 C84.2041746,42.6001067 82.9432387,46.3190183 82.3127707,49.7036458 C81.6823028,52.8793456 81.5246858,55.6371901 81.8399198,58.102536 C82.194558,60.3171688 82.8644302,62.1975173 83.9677491,63.7435817 C84.4406,64.3285791 84.9528552,64.8300053 85.4651104,65.2478606 C86.1743869,65.7492869 86.9624718,66 87.9081737,66 Z M87.4353228,65.1642895 C86.6472378,65.122504 85.9379614,64.7464343 85.228685,64.0778659 C84.6770255,63.4510831 84.1253661,62.6989436 83.7313236,61.8214476 C83.0614514,60.4007398 82.667409,58.7293189 82.5491962,56.8071848 C82.3915792,54.4671955 82.6280047,51.7511364 83.2978769,48.7425787 C84.0071533,45.5250934 85.1892807,42.0986804 86.8048548,38.5051254 C88.4204289,34.9115704 90.4300455,31.3180153 92.8337045,27.6826748 C92.8731087,27.6408892 93.0307257,27.3901761 93.3459597,26.9305353 C93.6611937,28.8526694 93.8582149,29.855522 93.8976191,30.0644496 C94.3704701,33.4072915 94.6857041,35.5383532 94.7645125,36.3740637 C95.0403423,38.5886964 95.2373635,40.6779726 95.3949805,42.6001067 C95.5920017,45.6922355 95.6708102,48.4082945 95.631406,50.7900694 C95.5525975,54.0493402 94.9615338,56.9325414 93.8976191,59.4814583 C93.3853639,60.7768095 92.7943002,61.8214476 92.0850238,62.6989436 C91.3363431,63.6600107 90.508854,64.3703646 89.4843436,64.7882198 C88.7750671,65.1642895 88.0657907,65.2478606 87.4353228,65.1642895 Z" id="mj"></path>
            <path d="M76.6585366,34.9359769 C76.8780488,34.8292717 76.9756098,34.6425377 76.9268293,34.4024511 C76.9268293,34.2690696 76.8780488,34.1356882 76.8536585,33.9489541 C76.7317073,33.4687809 76.6585366,32.9886076 76.6341463,32.5351107 C76.5853659,31.2279724 76.5853659,30.4810363 76.5853659,30.2676259 C76.6585366,28.5069907 76.7073171,26.879737 76.7804878,25.3591884 C76.8292683,24.9056914 76.902439,23.7319346 77.0487805,21.8112416 C77.1707317,20.290693 77.2682927,18.7968207 77.4146341,17.2495958 C77.5121951,16.0224864 77.5853659,15.0621399 77.6341463,14.4485852 C77.7560976,13.514915 77.8780488,12.3411582 78.0243902,10.9539911 C78.0731707,10.6338756 78.1219512,10.3671127 78.1707317,10.1003498 C78.7804878,7.80618873 79.2439024,5.77879059 79.5609756,3.99147908 C79.6585366,3.35124809 79.804878,2.39090161 80,1.08376334 C80,0.870353007 80,0.603590095 79.9512195,0.390179765 C79.902439,0.176769436 79.804878,0.0700642707 79.6585366,0.0167116882 C79.5121951,-0.0366408942 79.3902439,0.0433879795 79.2682927,0.176769436 C79.1707317,0.2834746 79.0731707,0.443532348 78.9756098,0.603590095 C78.8780488,0.977058172 78.7560976,1.32384996 78.6585366,1.67064174 C78.4146341,2.57763565 78.097561,4.33827087 77.7073171,6.92587112 C77.6341463,7.37936807 77.5365854,8.07295164 77.4146341,8.97994554 C77.3170732,9.88693944 77.2195122,10.5271704 77.1707317,10.9539911 C77.0731707,11.6475747 76.9756098,12.1811005 76.8536585,12.501216 C76.1219512,14.9020822 75.3658537,17.1162144 74.5609756,19.1169362 C73.7804878,20.9576003 73.1219512,22.4247963 72.5365854,23.491848 C72.2439024,24.0520501 71.9268293,24.5855759 71.5853659,25.0924254 C71.4634146,25.2524832 71.2195122,25.5459224 70.8292683,25.9460668 C70.6829268,26.1061245 70.5365854,26.1594771 70.3902439,26.1328008 C70.2926829,25.9460668 70.2439024,25.6793038 70.2682927,25.3591884 C70.2926829,24.959044 70.3414634,24.6389285 70.3902439,24.3721656 C70.7317073,22.9049696 71.4146341,21.4911261 72.4390244,20.1839879 C72.5609756,20.0506064 72.7317073,19.8638724 72.9512195,19.5971094 C73.1707317,19.3570228 73.3170732,19.1969651 73.3658537,19.1436125 C73.5121951,18.9835547 73.6097561,18.823497 73.6829268,18.7167918 C73.804878,18.5567341 73.804878,18.3700001 73.7073171,18.2099423 C73.6097561,17.996532 73.4390244,17.9431794 73.2439024,17.996532 C73.0243902,18.0232083 72.8780488,18.0765608 72.7317073,18.1565897 C71.804878,18.6100867 71.195122,18.9035259 70.9512195,19.0369073 C69.8292683,19.7038146 68.8292683,20.3973982 67.902439,21.0909818 C67.804878,21.1976869 67.6829268,21.3043921 67.5121951,21.4110973 C67.3658537,21.5444787 67.2439024,21.6511839 67.1219512,21.7312127 C67.0243902,21.8112416 66.8780488,21.9446231 66.7317073,22.0513282 C66.5853659,22.1580334 66.4390244,22.2380623 66.3414634,22.3447674 C65.9268293,22.6915592 65.5609756,22.9316459 65.2682927,23.1183799 C65.1463415,23.1984088 64.9512195,23.2784376 64.6585366,23.3851428 C64.4634146,23.491848 64.3170732,23.4384954 64.1463415,23.2784376 C64.0487805,23.1717325 63.9512195,23.0650273 63.902439,22.9316459 C63.7317073,22.5848541 63.6097561,22.3180912 63.4634146,21.9979757 C63.4146341,21.8645942 63.3658537,21.6511839 63.2682927,21.3577447 C63.1707317,21.0909818 63.097561,20.8775714 63.0487805,20.74419 C62.9512195,20.5041033 62.8780488,20.290693 62.7804878,20.1573116 C62.6097561,19.9172249 62.4146341,19.7838435 62.195122,19.7571672 C61.9756098,19.7571672 61.7804878,19.8371961 61.6097561,20.0506064 C61.5121951,20.1573116 61.3902439,20.290693 61.3170732,20.4507508 C61.2682927,20.5307796 61.1463415,20.74419 60.9268293,21.1710106 C60.3414634,22.3180912 59.9512195,22.9849984 59.8536585,23.2250851 C59.8536585,23.2250851 59.8536585,23.2517613 59.8292683,23.2784376 C59.804878,23.3851428 59.7317073,23.4384954 59.6341463,23.4651717 L59.6341463,23.2250851 C59.8292683,22.1580334 59.9268293,21.5978313 59.9512195,21.4911261 C60.0487805,21.0643055 60.195122,20.290693 60.3902439,19.2236414 C60.6097561,18.183266 60.7804878,17.3296247 60.8780488,16.7694226 C60.9512195,16.3426019 61.0487805,15.6756946 61.1707317,14.8487296 C61.195122,14.6619956 61.1707317,14.4752615 61.1463415,14.2084986 C61.1219512,14.0217646 61,13.8883831 60.8292683,13.8350305 C60.6829268,13.781678 60.5365854,13.8350305 60.4146341,13.9950883 C60.3414634,14.0484409 60.2926829,14.155146 60.2439024,14.2618512 C60.0487805,14.5819667 59.902439,14.8487296 59.8292683,15.0087874 C58.7804878,17.0895381 57.4390244,19.3303465 55.804878,21.7845653 C55.2926829,22.5848541 54.7073171,23.3851428 54.0487805,24.2654604 C53.804878,24.6122522 53.4390244,24.9857203 52.9756098,25.4125409 C52.7804878,25.599275 52.5365854,25.786009 52.2439024,25.9193905 C51.6585366,26.1861534 51.2195122,26.0527719 50.8292683,25.5192461 C50.5853659,25.1724543 50.4390244,24.7723099 50.3902439,24.3454893 C50.3658537,24.2654604 50.3414634,24.1054027 50.3170732,23.9186686 C50.2926829,23.7319346 50.2926829,23.5985531 50.2926829,23.5452005 C50.2439024,23.3317902 50.2195122,23.1984088 50.1707317,23.1183799 C50.097561,22.9316459 50,22.851617 49.8536585,22.7982644 C49.7317073,22.7715881 49.6097561,22.7982644 49.4878049,22.9316459 C49.4146341,22.9849984 49.3170732,23.1183799 49.195122,23.2784376 C49.1219512,23.3584665 49.0243902,23.491848 48.8780488,23.678582 C48.7317073,23.865316 48.6341463,24.0253738 48.5609756,24.1054027 C48.0487805,24.7989862 47.4634146,25.4125409 46.7804878,25.9193905 C46.6097561,26.0794482 46.3902439,26.2128297 46.1463415,26.3195348 C46.0487805,26.3728874 45.9512195,26.3728874 45.8780488,26.3195348 C45.7804878,26.2661823 45.7560976,26.1861534 45.7560976,26.0527719 C45.7804878,25.7059801 45.8292683,25.3858646 45.902439,25.1191017 C46.3902439,23.5718768 47.2195122,22.211386 48.4390244,21.0643055 C48.6829268,20.8242188 48.9512195,20.6108085 49.2439024,20.5307796 L49.5853659,20.5041033 C49.7560976,20.7708663 49.8292683,20.930924 49.8536585,20.9842766 C49.9756098,21.2243632 50.195122,21.3043921 50.4146341,21.2510395 C50.6585366,21.2243632 50.8292683,21.0909818 50.902439,20.8242188 C50.9512195,20.6641611 50.9756098,20.5574559 50.9756098,20.4240745 C50.9756098,20.103959 50.8536585,19.8105198 50.6341463,19.5437569 C50.4390244,19.276994 50.1707317,19.1169362 49.8536585,19.0902599 C49.6097561,19.0635836 49.3902439,19.0902599 49.1707317,19.1702888 C48.7804878,19.3303465 48.4146341,19.5437569 48.097561,19.8371961 C46.6341463,21.1710106 45.6585366,22.7449118 45.1463415,24.6389285 C45.0731707,24.9323677 45.0243902,25.3058358 45,25.786009 C45,25.9460668 45.0243902,26.1594771 45.097561,26.3995637 C45.1463415,26.5862977 45.2439024,26.7196792 45.3414634,26.8530607 C45.4634146,26.9597658 45.5853659,27.0131184 45.7317073,27.0397947 C45.8780488,27.066471 46.0243902,27.066471 46.195122,27.0131184 C46.3658537,26.9597658 46.5365854,26.879737 46.7317073,26.7463555 C46.9512195,26.5862977 47.1707317,26.3728874 47.4146341,26.1594771 C48,25.6793038 48.5365854,25.0924254 49.1219512,24.3988419 C49.1219512,24.3988419 49.1463415,24.3454893 49.1707317,24.3454893 C49.1707317,24.2921367 49.2195122,24.2654604 49.2195122,24.2387841 C49.2439024,24.2387841 49.2682927,24.2121078 49.2926829,24.1854315 C49.3170732,24.132079 49.3658537,24.132079 49.3658537,24.1054027 C49.4146341,24.0787264 49.4390244,24.0787264 49.4878049,24.0520501 C49.5121951,24.1054027 49.5121951,24.1854315 49.5365854,24.2387841 C49.5365854,24.318813 49.5609756,24.3988419 49.5609756,24.4521944 C49.5853659,24.505547 49.6097561,24.5855759 49.6097561,24.6122522 C49.7560976,25.145778 50,25.6259513 50.3902439,26.0527719 C50.9268293,26.6930029 51.6097561,26.8530607 52.3414634,26.4795926 C52.6829268,26.2928585 53,26.0794482 53.2682927,25.8126853 C53.7317073,25.2791595 54.097561,24.8790151 54.3414634,24.5588996 C54.9756098,23.7319346 55.7560976,22.5848541 56.7317073,21.0643055 C57.0731707,20.5041033 57.5609756,19.7038146 58.195122,18.6901155 C58.8536585,17.6230639 59.2682927,16.9294803 59.5121951,16.5826885 C59.6341463,16.3692782 59.7560976,16.2092205 59.8292683,16.1558679 L59.8536585,16.2358968 C59.804878,16.4493071 59.7804878,16.6093648 59.7560976,16.6893937 C59.1707317,18.7701444 58.7804878,20.7975426 58.5609756,22.7449118 C58.5121951,23.3051139 58.4390244,24.0253738 58.3902439,24.959044 C58.3902439,25.145778 58.4146341,25.3591884 58.4878049,25.5192461 C58.5609756,25.7326564 58.6829268,25.8393616 58.8536585,25.8927142 C59.0487805,25.9193905 59.195122,25.8660379 59.3658537,25.7059801 C59.4146341,25.6259513 59.5121951,25.5192461 59.5853659,25.3591884 C59.6341463,25.2258069 59.7317073,25.0924254 59.8292683,24.8790151 C59.902439,24.6922811 59.9756098,24.5855759 60,24.505547 C60.7804878,23.0917036 61.2439024,22.1580334 61.4634146,21.7312127 C61.6341463,21.384421 61.804878,21.1443343 61.9512195,20.9842766 L62.1219512,21.4110973 C62.2926829,22.1046808 62.5365854,22.6915592 62.8292683,23.1450562 C63,23.3851428 63.1707317,23.5985531 63.2682927,23.7052583 C63.7560976,24.2387841 64.3170732,24.3454893 64.9268293,24.0520501 C65.1707317,23.9453449 65.4146341,23.8119635 65.6585366,23.5985531 C65.9756098,23.3584665 66.3902439,23.038351 66.8780488,22.5848541 C68,21.6245076 68.8780488,20.8775714 69.5365854,20.4240745 C70.097561,19.9705775 70.7804878,19.5971094 71.5853659,19.276994 C71.6097561,19.276994 71.6829268,19.2236414 71.8536585,19.1702888 L71.8536585,19.276994 C71.804878,19.3303465 71.7804878,19.3570228 71.7317073,19.3836991 C71.7073171,19.4370517 71.6585366,19.4904043 71.6097561,19.5437569 C71.5853659,19.5971094 71.5609756,19.650462 71.5365854,19.6771383 C70.5365854,20.9576003 69.8780488,22.3180912 69.5609756,23.7586109 C69.3658537,24.5855759 69.3414634,25.3058358 69.4878049,25.9193905 C69.5609756,26.1594771 69.6341463,26.3728874 69.7560976,26.5596215 C69.9756098,26.9597658 70.2926829,27.066471 70.7073171,26.8530607 C70.9268293,26.7196792 71.1463415,26.5862977 71.3170732,26.3728874 C71.6341463,25.9994193 71.902439,25.6793038 72.0731707,25.3591884 C72.5365854,24.6389285 72.9268293,23.9186686 73.2682927,23.1984088 C74.2439024,21.3043921 75.2195122,18.9835547 76.2439024,16.1825442 C76.2926829,16.1291916 76.3414634,16.0224864 76.3902439,15.9157813 C76.4390244,15.7557235 76.4634146,15.7023709 76.4878049,15.6756946 C76.4878049,15.7023709 76.5365854,15.7023709 76.5365854,15.7023709 L76.5365854,15.8090761 L76.5365854,15.8090761 C76.5121951,15.8357524 76.5121951,15.889105 76.5121951,15.9157813 C76.5121951,15.9691338 76.5121951,16.0224864 76.4878049,16.0224864 C76.2926829,18.0232083 76.1463415,19.0902599 76.1463415,19.1702888 C76,20.5041033 75.8536585,22.1046808 75.6829268,24.0253738 C75.4146341,26.7463555 75.2926829,28.9604877 75.2439024,30.6144177 C75.2195122,31.2012961 75.2682927,31.8682034 75.3170732,32.561787 C75.3658537,33.202018 75.5121951,33.842249 75.8292683,34.4291274 C75.902439,34.6158614 76,34.7492429 76.097561,34.855948 C76.2439024,35.0160058 76.4390244,35.0426821 76.6585366,34.9359769 Z" id="a"></path>
        </g>
    </g>
</svg>